<svg width="590" height="113" viewBox="0 0 590 113" fill="none" xmlns="http://www.w3.org/2000/svg">
<rect width="590" height="113" rx="56.5" fill="#FE414A"/>
<rect x="78" y="31" width="9.75" height="52" fill="white"/>
<circle cx="111.042" cy="52.1251" r="18.9583" fill="white"/>
<path d="M190.026 62.191C189.83 64.0203 189.389 65.7027 188.703 67.238C188.017 68.7733 187.07 70.1127 185.861 71.256C184.652 72.3993 183.182 73.2977 181.451 73.951C179.72 74.5717 177.711 74.882 175.424 74.882C172.909 74.882 170.655 74.4573 168.662 73.608C166.702 72.7587 165.036 71.55 163.664 69.982C162.325 68.3813 161.296 66.454 160.577 64.2C159.891 61.9133 159.548 59.3653 159.548 56.556C159.548 53.6813 159.924 51.1007 160.675 48.814C161.459 46.5273 162.553 44.6 163.958 43.032C165.363 41.4313 167.045 40.2227 169.005 39.406C170.965 38.5567 173.121 38.132 175.473 38.132C177.662 38.132 179.556 38.4097 181.157 38.965C182.758 39.5203 184.113 40.3207 185.224 41.366C186.367 42.3787 187.266 43.6037 187.919 45.041C188.605 46.4783 189.111 48.079 189.438 49.843L183.607 50.676C183.346 49.5 183.019 48.4547 182.627 47.54C182.235 46.6253 181.712 45.8577 181.059 45.237C180.438 44.5837 179.671 44.0937 178.756 43.767C177.841 43.4077 176.747 43.228 175.473 43.228C173.905 43.228 172.517 43.5383 171.308 44.159C170.099 44.7797 169.07 45.678 168.221 46.854C167.404 47.9973 166.784 49.3857 166.359 51.019C165.934 52.6523 165.722 54.4817 165.722 56.507C165.722 58.565 165.934 60.4107 166.359 62.044C166.816 63.6773 167.47 65.082 168.319 66.258C169.168 67.4013 170.181 68.2833 171.357 68.904C172.566 69.492 173.938 69.786 175.473 69.786C176.845 69.786 178.005 69.6063 178.952 69.247C179.932 68.8877 180.749 68.3813 181.402 67.728C182.055 67.0747 182.562 66.2907 182.921 65.376C183.313 64.4287 183.591 63.367 183.754 62.191H190.026Z" fill="white"/>
<path d="M199.92 52.881H191.296V48.226H214.032V52.881H205.506V74H199.92V52.881Z" fill="white"/>
<path d="M227.721 61.897C226.153 61.9623 224.863 62.1257 223.85 62.387C222.838 62.6157 222.037 62.9423 221.449 63.367C220.861 63.7917 220.453 64.2817 220.224 64.837C220.028 65.3923 219.93 66.013 219.93 66.699C219.93 67.777 220.273 68.659 220.959 69.345C221.645 69.9983 222.691 70.325 224.095 70.325C226.317 70.325 228.064 69.786 229.338 68.708C230.645 67.5973 231.298 66.013 231.298 63.955V61.75L227.721 61.897ZM231.396 70.668C230.449 71.7787 229.306 72.726 227.966 73.51C226.627 74.2613 224.945 74.637 222.919 74.637C221.711 74.637 220.584 74.4737 219.538 74.147C218.493 73.853 217.578 73.3957 216.794 72.775C216.043 72.1217 215.439 71.305 214.981 70.325C214.557 69.345 214.344 68.2017 214.344 66.895C214.344 65.131 214.72 63.71 215.471 62.632C216.255 61.5213 217.268 60.6557 218.509 60.035C219.751 59.4143 221.155 58.9733 222.723 58.712C224.291 58.4507 225.892 58.271 227.525 58.173L231.298 57.977V56.899C231.298 55.037 230.857 53.714 229.975 52.93C229.093 52.146 227.852 51.754 226.251 51.754C224.553 51.754 223.279 52.048 222.429 52.636C221.58 53.1913 221.025 54.0407 220.763 55.184L215.667 54.645C216.125 52.1623 217.252 50.3493 219.048 49.206C220.845 48.0627 223.311 47.491 226.447 47.491C228.342 47.491 229.943 47.7197 231.249 48.177C232.556 48.6343 233.618 49.304 234.434 50.186C235.251 51.0353 235.839 52.0807 236.198 53.322C236.558 54.5633 236.737 55.9517 236.737 57.487V74H231.396V70.668Z" fill="white"/>
<path d="M247.753 52.881H239.129V48.226H261.865V52.881H253.339V74H247.753V52.881Z" fill="white"/>
<path d="M269.904 48.226V57.095H277.254C278.92 57.095 280.341 57.3073 281.517 57.732C282.726 58.1567 283.722 58.7447 284.506 59.496C285.29 60.2147 285.862 61.0967 286.221 62.142C286.613 63.1547 286.809 64.249 286.809 65.425C286.809 68.0057 285.96 70.08 284.261 71.648C282.595 73.216 280.047 74 276.617 74H264.318V48.226H269.904ZM269.904 69.443H276.568C279.573 69.443 281.076 68.1527 281.076 65.572C281.076 64.3307 280.733 63.367 280.047 62.681C279.394 61.9623 278.185 61.603 276.421 61.603H269.904V69.443Z" fill="white"/>
<path d="M321.766 48.226V74H316.18V52.93H305.008V74H299.422V48.226H321.766Z" fill="white"/>
<path d="M338.379 61.897C336.811 61.9623 335.521 62.1257 334.508 62.387C333.495 62.6157 332.695 62.9423 332.107 63.367C331.519 63.7917 331.111 64.2817 330.882 64.837C330.686 65.3923 330.588 66.013 330.588 66.699C330.588 67.777 330.931 68.659 331.617 69.345C332.303 69.9983 333.348 70.325 334.753 70.325C336.974 70.325 338.722 69.786 339.996 68.708C341.303 67.5973 341.956 66.013 341.956 63.955V61.75L338.379 61.897ZM342.054 70.668C341.107 71.7787 339.963 72.726 338.624 73.51C337.285 74.2613 335.602 74.637 333.577 74.637C332.368 74.637 331.241 74.4737 330.196 74.147C329.151 73.853 328.236 73.3957 327.452 72.775C326.701 72.1217 326.096 71.305 325.639 70.325C325.214 69.345 325.002 68.2017 325.002 66.895C325.002 65.131 325.378 63.71 326.129 62.632C326.913 61.5213 327.926 60.6557 329.167 60.035C330.408 59.4143 331.813 58.9733 333.381 58.712C334.949 58.4507 336.55 58.271 338.183 58.173L341.956 57.977V56.899C341.956 55.037 341.515 53.714 340.633 52.93C339.751 52.146 338.51 51.754 336.909 51.754C335.21 51.754 333.936 52.048 333.087 52.636C332.238 53.1913 331.682 54.0407 331.421 55.184L326.325 54.645C326.782 52.1623 327.909 50.3493 329.706 49.206C331.503 48.0627 333.969 47.491 337.105 47.491C339 47.491 340.6 47.7197 341.907 48.177C343.214 48.6343 344.275 49.304 345.092 50.186C345.909 51.0353 346.497 52.0807 346.856 53.322C347.215 54.5633 347.395 55.9517 347.395 57.487V74H342.054V70.668Z" fill="white"/>
<path d="M358.41 52.881H349.786V48.226H372.522V52.881H363.996V74H358.41V52.881Z" fill="white"/>
<path d="M387.324 52.048C385.07 52.048 383.355 52.7667 382.179 54.204C381.035 55.6413 380.464 57.6993 380.464 60.378V61.946C380.464 64.5593 381.003 66.601 382.081 68.071C383.159 69.5083 384.841 70.227 387.128 70.227C389.218 70.227 390.819 69.4267 391.93 67.826C393.04 66.2253 393.596 63.9877 393.596 61.113C393.596 58.0097 393.008 55.723 391.832 54.253C390.688 52.783 389.186 52.048 387.324 52.048ZM380.415 48.226V51.803C380.611 51.5743 380.905 51.215 381.297 50.725C381.721 50.235 382.26 49.7613 382.914 49.304C383.6 48.814 384.416 48.3893 385.364 48.03C386.311 47.6707 387.422 47.491 388.696 47.491C390.688 47.491 392.354 47.8667 393.694 48.618C395.066 49.3693 396.176 50.3657 397.026 51.607C397.875 52.8483 398.479 54.2857 398.839 55.919C399.231 57.5523 399.427 59.2673 399.427 61.064C399.427 62.9587 399.182 64.739 398.692 66.405C398.235 68.071 397.532 69.5247 396.585 70.766C395.637 72.0073 394.461 72.9873 393.057 73.706C391.685 74.4247 390.068 74.784 388.206 74.784C387.062 74.784 386.05 74.637 385.168 74.343C384.318 74.049 383.583 73.706 382.963 73.314C382.342 72.922 381.836 72.53 381.444 72.138C381.052 71.7133 380.758 71.3703 380.562 71.109V83.506H374.976V48.226H380.415Z" fill="white"/>
<path d="M415.174 74.784C411.189 74.784 408.102 73.5753 405.913 71.158C403.725 68.7407 402.63 65.3923 402.63 61.113C402.63 59.0223 402.924 57.144 403.512 55.478C404.1 53.7793 404.95 52.342 406.06 51.166C407.171 49.99 408.494 49.0917 410.029 48.471C411.597 47.8177 413.345 47.491 415.272 47.491C417.232 47.491 418.98 47.8013 420.515 48.422C422.083 49.0427 423.406 49.941 424.484 51.117C425.562 52.293 426.379 53.714 426.934 55.38C427.522 57.046 427.816 58.9243 427.816 61.015C427.816 63.1057 427.522 65.0003 426.934 66.699C426.346 68.3977 425.497 69.8513 424.386 71.06C423.308 72.236 421.985 73.1507 420.417 73.804C418.882 74.4573 417.134 74.784 415.174 74.784ZM415.223 70.276C417.575 70.276 419.29 69.443 420.368 67.777C421.479 66.111 422.034 63.857 422.034 61.015C422.034 58.2383 421.479 56.0497 420.368 54.449C419.29 52.8157 417.575 51.999 415.223 51.999C412.871 51.999 411.14 52.8157 410.029 54.449C408.951 56.0497 408.412 58.2547 408.412 61.064C408.412 63.8733 408.951 66.111 410.029 67.777C411.14 69.443 412.871 70.276 415.223 70.276Z" fill="white"/>
<path d="M437.439 48.226V58.32H449.199V48.226H454.785V74H449.199V62.975H437.439V74H431.853V48.226H437.439Z" fill="white"/>
<path d="M471.285 74.784C467.3 74.784 464.213 73.5753 462.024 71.158C459.836 68.7407 458.741 65.3923 458.741 61.113C458.741 59.0223 459.035 57.144 459.623 55.478C460.211 53.7793 461.061 52.342 462.171 51.166C463.282 49.99 464.605 49.0917 466.14 48.471C467.708 47.8177 469.456 47.491 471.383 47.491C473.343 47.491 475.091 47.8013 476.626 48.422C478.194 49.0427 479.517 49.941 480.595 51.117C481.673 52.293 482.49 53.714 483.045 55.38C483.633 57.046 483.927 58.9243 483.927 61.015C483.927 63.1057 483.633 65.0003 483.045 66.699C482.457 68.3977 481.608 69.8513 480.497 71.06C479.419 72.236 478.096 73.1507 476.528 73.804C474.993 74.4573 473.245 74.784 471.285 74.784ZM471.334 70.276C473.686 70.276 475.401 69.443 476.479 67.777C477.59 66.111 478.145 63.857 478.145 61.015C478.145 58.2383 477.59 56.0497 476.479 54.449C475.401 52.8157 473.686 51.999 471.334 51.999C468.982 51.999 467.251 52.8157 466.14 54.449C465.062 56.0497 464.523 58.2547 464.523 61.064C464.523 63.8733 465.062 66.111 466.14 67.777C467.251 69.443 468.982 70.276 471.334 70.276Z" fill="white"/>
<path d="M488.013 48.226H494.285L502.468 68.169L510.847 48.226H516.727V74H511.68V56.948L504.33 74H500.116L493.06 56.948V74H488.013V48.226Z" fill="white"/>
</svg>
